<svg width="752" height="136" fill="none" xmlns="http://www.w3.org/2000/svg"><path d="M106.164 30.88c-3.472.628-4.928 3.723-5.735 6.84-.963 3.812-1.411 7.198 2.106 9.889-4.996-4.306-2.061-14.531 3.629-16.729zm-3.629 16.706a6.718 6.718 0 003.517 1.615 8.622 8.622 0 01-3.517-1.615zM91.088 26.732a13.06 13.06 0 011.12-.56c-.508.151-.98.403-1.39.74l.27-.18zm-8.961 7.87c-3.07 5.809-2.913 14.263 2.486 18.725-5.13-6.727-3.875-15.966 1.3-22.133a9.726 9.726 0 00-3.764 3.409h-.022zm8.266-7.287l.426-.404a28.593 28.593 0 00-4.794 4.216 12.033 12.033 0 004.39-3.812h-.022zm-2.24-9.373a20.88 20.88 0 011.792.493c-.762-.763-.605-1.01-1.546-1.615a8.595 8.595 0 00-2.24-.874 9.65 9.65 0 00-2.666-.404 15.38 15.38 0 00-8.065 2.624 32.723 32.723 0 00-12.746 12.692c-2.644 4.776-4.66 11.436-3.226 16.885a14.15 14.15 0 004.88 7.304 14.128 14.128 0 008.247 3.012 13.433 13.433 0 01-11.2-7.916 21.839 21.839 0 01.671-15.697c4.122-10.562 14.293-18.904 26.099-16.504zm68.102 61.666a41.788 41.788 0 007.617 2.758c1.366.426 4.48 2.49 5.399 0a49.624 49.624 0 00-7.258-1.749 26.577 26.577 0 01-6.363-3.677c-4.48-2.826-9.431-5.898-11.201-11.212 1.613 6.032 6.631 10.696 11.806 13.813v.067zm-12.411-10.651a57.63 57.63 0 00-4.726-4.328c2.509 2.04 3.36 5.65 4.122 8.61.346 1.72.593 3.456.739 5.203.201 1.682.784 3.252 1.12 4.911.399-2.46.52-4.958.358-7.445-.156-2.736.247-4.821-1.613-7.019v.068zm6.228-8.006c0-.47-1.366-1.906-1.658-2.377a20.199 20.199 0 01-2.105-4.888 20.18 20.18 0 008.356 12.176 11.506 11.506 0 005.511 2.467c1.156.33 2.33.592 3.517.785a13.6 13.6 0 003.158-.471c-.56-1.032-2.24 0-3.338 0a25.653 25.653 0 01-5.981-1.592 19.856 19.856 0 01-7.46-6.167v.067zm.672-16.75c-.269 1.03-.739 2.062-.985 2.937.446-.959.777-1.968.985-3.005v.067zm-1.097-4.037c-1.367-.359-2.868.426-4.234.426 2.621 0 6.026 0 5.331 3.61a3.317 3.317 0 00-1.097-4.104v.068zm-9.073 2.242c-4.1 2.108-6.923 7.961-8.244 12.2a8.44 8.44 0 001.008 8.027 3.354 3.354 0 004.068.77 3.362 3.362 0 001.129-.95 4.027 4.027 0 01-4.986-1.42 4.038 4.038 0 01-.659-1.741c.148-2.673.81-5.292 1.949-7.714a16.669 16.669 0 0110.215-10.63 8.573 8.573 0 00-4.48 1.369v.09zm15.614 71.96a.966.966 0 00-1.008 0c.328.1.679.1 1.008 0zm-.874-2.826l1.568-.134a1.697 1.697 0 00-1.568.067v.067zm11.672 4.238l.582.561a1.168 1.168 0 00-.582-.561zm12.881 6.84a55.757 55.757 0 01-12.097-2.803 36.572 36.572 0 01-8.378-3.364s-2.017-.897-1.994-.897c-1.031-.493-2.061-.919-3.069-1.48-1.748-.919-3.786-1.233-5.444-2.242-2.128-1.009-4.481-1.861-6.721-2.714-1.321-.515-2.621-1.031-3.898-1.659a17.58 17.58 0 00-2.979-1.502c.381 2.803 1.277 6.009-.448 8.588a10.934 10.934 0 01-4.951 3.543 31.713 31.713 0 01-7.796 3.14 20.905 20.905 0 01-8.244-.561c-5.892-1.435-11.694-3.117-17.474-4.933-2.845-.897-5.712-1.794-8.624-2.512a17.143 17.143 0 00-3.652-.785c-1.02.161-2.029.378-3.024.651 1.568 3.565-.941 7.198-2.868 10.001a11.2 11.2 0 01-7.975 4.731c-3.22.11-6.417-.592-9.297-2.04-3.226-1.189-6.72-2.243-9.924-3.072-6.72-1.907-13.8-3.185-20.565-1.054a32.462 32.462 0 00-11.313 6.278 23.81 23.81 0 00-4.48 7.737c.358-2.243.313-5.382 1.68-7.311a26.708 26.708 0 013.315-3.049 35.85 35.85 0 015.847-4.485c8.96-6.727 20.162-3.835 29.817.157 4.66 1.928 10.149 5.471 15.368 4.485a8.474 8.474 0 005.87-3.745c1.366-2.243.627-4.754.201-7.198a32.203 32.203 0 00-1.904 2.242 10.145 10.145 0 01-.18-4.104 3.81 3.81 0 012.532-2.78c.538-.112 1.098.247 1.613 0 .762.762 2.778.471 3.853.179a6.339 6.339 0 012.935-.179 70.039 70.039 0 0112.142 2.758c4.077 1.256 8.087 2.691 12.187 3.879a26.85 26.85 0 0011.537 1.727 10.073 10.073 0 007.661-5.337 13.155 13.155 0 001.277-5.314 7.538 7.538 0 01.247-2.916c1.299-2.892 4.48-2.242 6.72-1.793a12.59 12.59 0 013.831 1.143l-.291-.134c2.24.874 4.48 1.816 6.586 2.892 3.271 1.682 6.877 3.05 10.059 4.799a77.259 77.259 0 0013.553 5.315h-.336c1.366.157 2.71.762 4.077 1.031 1.78.444 3.593.744 5.421.897 2.323.079 4.649.034 6.967-.134 1.076 0 1.949-.404 3.025-.494h-.292a26.575 26.575 0 006.721-2.242 13.995 13.995 0 006.273-7.467.347.347 0 010-.157 5.098 5.098 0 00-1.717-5.98 5.085 5.085 0 00-6.214.149c-1.501 1.166-3.024 2.243-4.48 3.431-5.444 4.149-12.165 3.969-18.639 2.736a75.572 75.572 0 01-23.365-9.553c-3.808-2.242-7.527-4.485-11.336-6.727a31.94 31.94 0 00-4.099-2.085 4.476 4.476 0 00-5.39 1.816 4.484 4.484 0 00-.659 1.928c-.806 4.866-5.802 8.813-10.439 10.091-6.138 1.705-13.643.471-19.602-1.502h.426a13.31 13.31 0 01-4.48-1.861 76.787 76.787 0 00-8.67-4.149 35.81 35.81 0 00-18.975-2.444 12.57 12.57 0 01-4.383 13.727 12.531 12.531 0 01-4.578 2.194c-6.183 1.368-12.41-2.534-17.921-4.709a34.701 34.701 0 00-12.59-2.242 34.31 34.31 0 00-18.124 4.26c-2.24 1.458-4.816 2.669-7.168 4.149.327-1.69.8-3.348 1.41-4.956.583-1.166 1.703-1.525 2.824-2.13a24.04 24.04 0 013.136-1.772 1.271 1.271 0 00-.403.157 20.154 20.154 0 017.572-4.193 36.63 36.63 0 015.286-1.189c.896-.157 2.24 0 2.823-.134a11.195 11.195 0 012.24 0c5.466-.225 10.664 1.794 15.682 3.655 1.545.583 3.158 1.031 4.637 1.749 1.12.516 2.016 1.345 3.091 1.928 3.092 1.682 9.88 2.781 10.395-2.242.247-2.242-.74-4.305-.605-6.525.016-.62.099-1.237.247-1.84.134-.448.828-1.277.828-1.636s-.425-.785-.56-1.032a39.593 39.593 0 0115.973-2.018 75.154 75.154 0 0119.714 6.727 50.815 50.815 0 0012.724 4.082c2.993.678 6.121.42 8.961-.74a9.767 9.767 0 004.974-6.728l-4.167.449c2.89-3.723 5.443-7.512 10.574-8.095 6.989-.74 13.105 4.26 18.728 7.624 3.36 1.996 6.72 3.969 10.215 5.785a42.51 42.51 0 0010.126 4.283 27.752 27.752 0 0020.005-3.879 23.925 23.925 0 009.767-14.172c.627-2.579.336-6.593-3.024-7.109-2.24-.38-5.265 2.243-7.415.83-1.008-.583-1.613-1.48-2.756-1.906a15.915 15.915 0 00-3.382-.56c-2.241-.36-4.705-1.055-7.057-1.525-2.352-.471-4.861-.942-7.281-1.503a55.269 55.269 0 01-6.855-1.592c-2.24-.874-4.682-1.256-6.832-2.242-1.031-.494-1.972-1.122-2.98-1.637a18.48 18.48 0 01-3.607-1.75 8.446 8.446 0 01-2.24-7.579c2.8 2.826 5.332 6.256 8.961 8.05a53.17 53.17 0 007.975 3.32 83.955 83.955 0 0014.741 3.52 82.62 82.62 0 019.543.785c2.532.246 5.041.538 7.55.92a20.428 20.428 0 01-5.803-3.992c-1.254-.853-2.733-1.256-4.01-2.13a28.73 28.73 0 00-4.099-2.31c-2.554-1.189-5.197-2.243-7.841-3.185a104.473 104.473 0 00-10.081-2.825 5.375 5.375 0 01-3.495-.987c-.291-.224-2.889-2.354-2.665-2.803.224-.448 1.814 1.256 2.24 1.525.68.576 1.433 1.058 2.24 1.435 1.211.357 2.447.627 3.696.808 2.554.582 5.175 1.076 7.684 1.704a56.247 56.247 0 0115.301 6.974c2.24 1.39 4.077 3.543 6.429 4.754a15.02 15.02 0 014.234 3.094 96.905 96.905 0 014.481 3.924v-.448a12.275 12.275 0 003.114 3.341 16.803 16.803 0 015.085 6.413c-.336-.672-.672-1.3-1.075-1.95a22.578 22.578 0 013.024 16.145c-2.688 14.621-17.272 19.913-30.534 18.343l-.157.045zm-78.609-66.802c.731-.293 1.479-.54 2.24-.74-.802.184-1.589.432-2.352.74h.112zM36.09 13.21A31.655 31.655 0 0153.205 1.078c6.945-1.86 13.733-.986 20.678.18 6.474.987 14.001 3.229 19.176 7.265 1.568 1.234 3.315 2.243 4.861 3.543 1.546 1.301 4.481 3.566 4.794 5.45h-.358a33.238 33.238 0 007.303 5.426 72.208 72.208 0 0011.201 5.472c5.712 2.242 13.71 4.484 18.706-.247a11.463 11.463 0 003.651-7.893 34.855 34.855 0 00-.381-4.328 5.695 5.695 0 00-.492-2.826 18.826 18.826 0 00-2.241-1.771c-.515-.494-1.008-1.054-1.501-1.525a9.138 9.138 0 00-3.472-2.242 9.579 9.579 0 00-8.222.919c-2.598 1.637-4.906 4.978-3.673 8.118a5.334 5.334 0 003.189 2.937 5.323 5.323 0 004.315-.404c-1.971 2.624-4.816 2.243-6.967 0a6.737 6.737 0 01-1.12-7.198c1.747-4.664 8.177-5.942 12.545-5.292a19.847 19.847 0 0112.165 7.423 11.489 11.489 0 013.136 6.727 11.216 11.216 0 01-3.047 7.377 11.2 11.2 0 01-11.402 5.382 65.052 65.052 0 01-16.332-4.059 78.1 78.1 0 01-14.763-7.332c-1.277-.763-2.397-1.75-3.674-2.512a4.467 4.467 0 00-1.389-.56c-.134 0-.29.515-.448.47-.604 0-1.41-1.166-2.24-1.502-.829-.336-2.128-.65-3.203-1.099-1.076-.448-1.882-.986-2.912-1.278a11.196 11.196 0 01-2.756-1.076c-.806-.516-1.411-1.256-2.24-1.727a29.907 29.907 0 00-6.474-2.018 49.931 49.931 0 00-7.236-1.906 29.096 29.096 0 00-25.27 8.185c-11.492 12.22-7.639 33.636 7.28 41.148a50.5 50.5 0 0014.137 3.767 33.13 33.13 0 007.84.83 36.031 36.031 0 007.729-1.547c2.24-.628 3.383-2.243 5.914-2.422a16.205 16.205 0 005.466-1.368 42.985 42.985 0 0113.979-2.489 14.48 14.48 0 00-6.048 0 15.9 15.9 0 0116.174 4.956 9.67 9.67 0 012.755 7.108 11.591 11.591 0 01-4.278 6.728 12.228 12.228 0 01-12.322 2.623 7.054 7.054 0 01-4.816-5.247 3.704 3.704 0 011.098-3.072c.425-.449 1.254-1.346 1.613-.471.537 1.256-1.703 2.4-1.076 3.902.628 1.502 4.481 3.61 6.228 4.126 5.22 1.525 7.953-2.601 8.625-7.041.829-5.494-2.24-7.894-7.034-9.822-5.377-2.243-10.888-.359-16.175 1.255a55.424 55.424 0 01-7.527 1.75c-2.554.426-5.107 1.48-7.661 2.13a44.157 44.157 0 01-18.19 1.413l1.567 1.435c-6.25-2.803-12.814-5.023-18.571-8.79a32.806 32.806 0 01-8.266-6.952 25.441 25.441 0 01-4.862-11.01c-1.635-9.105-.246-19.397 5.287-27l.112.113zm186.323 35.48l7.304-25.05h4.197l1.582.373 1.294.747 1.466.488 8.626 1.063h42.008l7.13-1.005 1.524-.374 2.703-1.177h4.744l7.332 24.963h-5.75a1.612 1.612 0 01-1.093-.861l-.46-1.38-3.45-6.377-3.652-4.28-1.064-.89-2.559-1.38-2.875-1.005-3.278-.603-11.645-.173v75.725l.518 3.448.862 2.872.748 1.236 1.093.89 1.265.718 3.048.776 3.709.259v5.372h-40.944v-5.401h2.875l3.278-.718 1.38-.604 1.093-.804.891-1.092.632-1.264.777-3.045.431-3.619V31.827H247.63l-3.71.546-2.875.948-2.616 1.292-3.048 2.873-3.997 5.746-2.358 5.372-6.613.086zm147.646 19.42V57.795l-1.553 2.04-.489 1.321-.287 1.38v1.666l.23 1.608.402 1.322.719.976.892.948.086-.948zm-11.501-38.983V23.38h72.169l.23.287 1.898 24.016-6.124.604v-.259l-1.956-7.297-2.214-4.28-1.926-2.097-1.61-1.063-2.875-1.092-7.936-1.35-14.377-.144-2.3.259-1.725.948-.575.776-.489 2.154V67.65l.604.287 14.376-6.636 4.285-1.063 3.622.345 2.013.603 2.875 1.207 2.876 2.327.632.746 1.495 2.414 1.035 2.872v2.528l-.402 2.299-.748 1.752-1.179 1.666-2.702 2.557-2.329 1.379-.403-.89.403-.834 1.495-1.092 2.041-1.953.374-.89.46-1.81-.604-1.12-.833-.432-2.099-.488h-1.266l-20.903 8.36-5.204 1.436v18.414l.575 4.769 1.093 4.108.402.948 1.093 1.494 1.552 1.12 1.898.804 2.157.403h12.68l10.293-1.609 3.882-1.322 2.444-1.608 3.076-3.448 2.875-4.969 2.387-5.573a.836.836 0 01.604-.633l5.75 1.552-5.578 22.982-.287 2.326-1.007.374h-75.964v-4.51l.287-1.063 3.767-.287 2.156-.489 1.84-.833 1.38-1.206 1.093-2.873.719-3.246.402-6.205-.172-26.228-1.725-2.212-1.438-2.528-.719-1.983-.604-3.504v-2.47l.604-3.39.834-1.81 1.121-1.494 2.042-1.954V48.49l.172-5.114-.287-4.912-1.323-5.257-1.006-1.638-.719-.632-1.811-.861-2.128-.489-4.514-.46zM531.707 3.128c10.677 8.101 21.344 8.101 32.002 0v7.297c-10.677 8.1-21.344 8.1-32.002 0V3.128zm70.502 20.856v5.745l-4.543.604-2.329.66-2.099 1.178-1.438 1.58-.517 1.12-.834 3.821v5.918l.489 64.78.632 2.442 1.093 2.126 1.438 1.608 1.983 1.092 2.444.603 3.825.345v5.315l-.23.258-3.825-.258-29.011.258v-4.309l.172-1.264 7.591-1.838.776-.719.719-.89.834-2.183.748-3.965 1.236-64.378-69.007 79.891-.776.718h-6.153a2.04 2.04 0 01-1.208-.431l-.833-84.63-.662-4.022-.46-1.12-1.207-1.868-1.611-1.465-1.006-.488-1.294-.316-4.83-.173v-4.366l.201-1.38h32.807v5.746l-4.658.489-2.329.775-1.955 1.236-1.265 1.81-.92 2.212-.777 3.82-.604 52.514.202 1.12 60.007-68.945.834-.719 1.437.201 26.913-.258zm119.209 47.401V31.597c-.75-.21-1.522-.335-2.3-.373h-2.128a25.176 25.176 0 00-15.153 4.194c-3.833 2.777-5.75 7.565-5.75 14.364 0 7.87 2.415 13.434 7.245 16.69a31.421 31.421 0 0018.086 4.913zm-26.395 1.493a29.553 29.553 0 01-13.284-10.054 26.646 26.646 0 01-4.802-16.001c0-8.618 2.876-14.364 9.057-17.897a41.523 41.523 0 0119.926-5.229h6.958c2.07 0 4.083.173 6.038.173l6.038.287H741.2c3.421 0 6.929-.23 10.408-.402v5.372c-5.29 0-8.626 1.235-9.718 3.706a25.834 25.834 0 00-1.812 11.002l.173 6.751v45.619l-.173 6.55a27.581 27.581 0 001.668 10.801c1.093 2.528 4.399 3.821 9.862 3.821v5.745h-2.674l-2.703-.201-8.079-.316h-18.057l-5.003.316-4.974.288v-5.746c5.348 0 8.626-1.293 9.661-3.821a27.644 27.644 0 001.639-10.801v-24.59h-9.057l-19.121 30.738c-1.006 1.551-1.898 2.872-2.674 4.251a32.947 32.947 0 01-2.415 3.304 16.362 16.362 0 01-6.326 5.113 26.462 26.462 0 01-9.891 1.465H658.19v-5.745a12.286 12.286 0 008.943-4.137 63.232 63.232 0 007.274-8.963 205.038 205.038 0 003.163-5.027c1.006-1.666 1.898-3.074 2.731-4.28l14.722-22.092z" fill="#111"/></svg>